<?xml version="1.0" encoding="utf-8"?>
<!-- Generator: Adobe Illustrator 23.0.1, SVG Export Plug-In . SVG Version: 6.00 Build 0)  -->
<svg version="1.1" id="Layer_1" xmlns="http://www.w3.org/2000/svg" xmlns:xlink="http://www.w3.org/1999/xlink" x="0px" y="0px"
	 viewBox="0 0 166 190" style="enable-background:new 0 0 166 190;" xml:space="preserve">
<style type="text/css">
	.st0{fill:#FFFFFF;}
	.st1{fill:#FBA100;}
</style>
<g>
	<g>
		<polygon class="st0" points="9.7,6.8 155.6,6.8 154.3,54.3 155.6,182.4 9.7,182.4 		"/>
		<g>
			<path class="st0" d="M32.2,12c4.7-0.2,12.8,0.1,11.5,0.9l1,0.5C40.6,13.3,23.8,13.3,32.2,12z"/>
			<path class="st0" d="M31,8.3c4.1,0.3,1,0.5,0.2,0.8L25.6,9C23.9,8.6,28.7,8.4,31,8.3z"/>
			<path class="st0" d="M33.2,0.6l-1.5-0.3c1.7,0.2,5.5,0.1,6.7,0.8c0.1,0.4-3.9,0.3-7.2,0.1C31.9,0.9,34.9,1,33.2,0.6z"/>
			<path class="st0" d="M115,9c1.2-1.2-4.1-3.1-10.9-4.2l2.5-2.1c5.1,1,15.3,0.4,23.3,0.4c3.1-0.4-7.4-0.7,0.4-1.1
				c0.9,0.3,1.5-0.1,3.2,0.1c3.5-0.3,3,0.1,4.9-0.3c0.9-0.2,2.1-0.4,4-0.5c1,0,2.1-0.1,3.5-0.1c1.8,0,4,0,6.5,0.1
				c2.7,0.3,5.1,0.6,7.4,0.9l-0.1,0.9c0,2.9,0,5.8,0,8.7c0,2.1,0,4.1,0.1,6.2c0.1,3.6,0.1,7.1,0.2,10.7c0.1,7.1-1.3,12.9-1.2,20
				c0.3,14.2,2,29.7,1.6,43c1,4.7,0.7,18.6,1.3,26.9l-0.6,0.2c1,4.8-0.2,12.9-0.1,18.8l-0.6,5.3c-1,2.1-0.5-15.2-1.9-10.5
				c-0.8,11.4,1.3,19.2,0.3,28.9c-0.1,4.7,0,6.9,0.2,8.5c0.1,0.8,0.2,1.5,0.3,2.4c0,0.4,0.1,0.9,0.1,1.4c0,0.3,0,0.6,0.1,0.9
				c0,0.2,0,0.3,0,0.5s0,0.5,0,0.8c0.3,1.2,0.4,0.5,0.6-0.5v-0.2V175l0.1-0.2c0-0.1,0.1-0.3,0.1-0.4c0.1-0.2,0.2-0.3,0.4-0.2
				c0,1.1,0,2.3,0,3.4c0,1.3,0,2.6,0,3.8c0,0.5,0,1.1,0,1.6c0,2.8-2.2,5-4.8,4.9c-1.1,0-2.2-0.1-3.3-0.1c-1.2-0.1-2.3-0.1-3.4-0.2
				h-0.4h-0.2h-0.1H148c-0.3,0-0.6-0.1-0.9-0.1c-2.3-0.3-4.4-0.6-6.5-0.9c-4.2-0.6-8.7-1.1-16.1-1c-0.6,0.5-14.6,1.9-1.6,2.6
				l6.2-0.6l4.2,0.7c-4.8,0-13.6,0-12.6,0.7c-6.3-2.4-32.8,2.3-19.6-1.3c8.2,0.6,10.5,0.4,15.8-0.5c-18.4-0.2-34.7-1.1-49.9-1.1
				l-4.5,1c-0.3-1-7.7-1.7-15-2c-3.1,0.2-7.1,0.1-6.2,0.6c-1.4,0.6,26.5,0.4,13.4,2.2c-16.9-0.4-34.6-2-45.4-3.4
				c0.7-8.1,13.9-2,22.3-3.3c28.3-1.3,58.5,2.3,85.9,0.5c1,0.7,8.3-1.7,6.1-1c2.5,0.5,9.6-1.1,11.5-0.1c6.6-0.3,8-0.8,16.7-0.9
				c0-4.7,1.2-5.3,1.2-10.1c0-4.2,1.6-8.2,1.6-12.3c0.1-8.2,0.1-16.1,0.2-23.3c-1.7,5.8,0.7-12.4,0-18.2c0.7-5.3,1-13.1,1-19.9
				c-0.3-0.7-1-6.5-1.5-5.5c0.2,5-0.2,6.9-0.3,12c-1.3-2.2,0-11.1,0.1-18.8l0.7,4c0-12.9,2.2-28.1,1-39.7l-4.7,20.9
				c-0.5-14.3,4.6-43.1,3.2-53.6c-0.4,9.6,0.5,25.5-1.1,25.2c-0.9-0.5-0.8-11.6-0.5-17c0.2-2.9,0.3-5.8,0.4-8.5c0-1,0-2.1,0.1-3.1
				c0-0.9,0-1.9,0-2.8c-1.3,0-2.5,0.1-3.7,0.1c-0.7,0-1.4,0.1-2.1,0.1c-0.9,0-1.7,0.1-2.6,0.1c-3.4,0.1-6.7,0.3-10.1,0.4
				C128.4,10,121.9,9.9,115,9z"/>
			<path class="st0" d="M143.9,12c1.7,0,3.2,0,4.5-0.1c0.2,0,0.3,0,0.5,0h0.1c0.1,0,0.2,0,0.3,0c0.2,0,0.3-0.1,0.5-0.1
				c0.6-0.2,1.2-0.4,1.8-0.6c0.3,0.3,0.7,0.5,0.9,1.4c0.1,0.2,0.1,0.5,0.2,0.9c0,0.2,0,0.3,0.1,0.6c0,0.4,0,0.7,0.1,1.1
				c0.1,1.6,0.1,3.8,0.1,6.5c-0.9-2.3-1.6,6.6-1.7,12.5c0.5,5.8,0.2,12.7,0.2,17.9c-0.2,3.5-1.2,3-1.3-3.8
				c0.7-6.4,0.7-13.4,0.5-20.5c-0.1-3.6-0.2-7.1-0.3-10.7c0-0.9,0-1.7-0.1-2.7v-0.6v-0.1v-0.3c0-0.3,0-0.6,0-1c-0.4,0-0.7,0-1.2-0.1
				c-0.1,0-0.1,0-0.2,0h-0.7c-0.5,0-1-0.1-1.4-0.1C145.8,12.2,144.8,12.1,143.9,12z"/>
			<path class="st0" d="M128.8,6.8c8.7-0.1,5.4,2.1,14,1.4c-3.6,1.1-4.8,0-12.7,0.1l4.6-0.6L128.8,6.8z"/>
			<path class="st0" d="M152.8,54.2c0.1,6-0.4,19.7-1.5,20.1c-0.1,0.9-0.7-0.6-0.5,2.8C151.2,71.9,151.3,56.5,152.8,54.2z"/>
			<path class="st0" d="M157.4,27.8c0.2,3.4,0.2,6.8,0.2,11.8C157.4,36.3,156.9,32.2,157.4,27.8z"/>
			<path class="st0" d="M155,62c0.9-1.1,0.2,5,0.2,6.8l-0.4,3.6C154.6,68.9,154.5,64.7,155,62z"/>
			<path class="st0" d="M152.4,113.3c-0.3,8.6-1.1-9-1.2,1.3l-0.1-6l1.3-2.2V113.3z"/>
			<path class="st0" d="M151.2,126.5c0.3,2.5,0.4,5,0.1,9.4l-0.5-2.4C150.7,131.8,151.2,129.9,151.2,126.5z"/>
			<path class="st0" d="M154.2,115.2c0.3,4.2-0.4,3.6-0.6,6.2C153.2,119.8,154.1,111,154.2,115.2z"/>
			<path class="st0" d="M162.3,156.8c-1.1-3.9-0.4-11.8-0.8-19.4C161.9,145,162.4,148.2,162.3,156.8z"/>
			<path class="st0" d="M15.4,44.8c-0.4,3.5-0.1,7.7,0.2,10.2l0.4-1.9L15.4,44.8z"/>
			<path class="st0" d="M22.3,13.5c1.8-0.7,1.1-0.8-0.8-1c-1-0.1-2.3-0.1-3.7-0.2c-0.4,0-0.7-0.1-1.1-0.1c-0.1,0-0.2,0-0.3,0h-0.1
				h-0.2c-0.3-0.1-0.5-0.2-0.8-0.3c-0.3,0-0.7,0-1,0c0,0.6,0.1,1.3,0.1,2V14v0.7l0.1,1.5l0.1,3.2c0.2,4.2,0.4,8.4,0.3,12.5l0.7,5.8
				c0.1-3.9,0.3-8.9,0.4-14.3c0-2.7,0.1-5.4,0.1-8.3v-1c0-0.2,0-0.2,0-0.2l0,0l0,0c0,0,0,0,0-0.1c0,0,0-0.1,0.1-0.1c1,0,2-0.1,3-0.1
				C20.3,13.6,21.3,13.6,22.3,13.5z"/>
			<path class="st0" d="M29,6.8c-6.3-0.5-14.7,0.3-18.9,0.4c0,0.2,0,0.3,0,0.5c0-0.2,0-0.3,0-0.5c3.8,0.1,8.2,0.1,12.3,0.2
				c4.2,0,8.1,0.1,10.8,0.1C33.9,7.2,30.6,7,29,6.8z"/>
			<path class="st0" d="M16.1,135.8c-0.1-11.9,0.9-28.5-0.7-41.6c-0.3,6.1-0.6,6.2-0.9,15.7c-1.7-7.1,0.2-14.6,0.2-23.1
				c-0.4,7-1.1-2.2-1.2-8.1c0.4-11.2,0.3-29.1,0.2-44.5c-0.3-3.3-0.2-10.4-0.3-16.2c0-1.4,0-2.9-0.1-4c0-0.5-0.1-1-0.2-1.4
				c-0.1-0.8-0.4-1.5-0.8-1.3c0-0.5,0-0.9,0-1.3c1,0,1.9,0.1,2.6,0.2c0.4,0.1,0.7,0.1,0.9,0.2c0.2,0,0.2,0.1,0.4,0.1
				c0.3,0,0.5,0.1,0.8,0.1c2,0.3,3.8,0.7,6.8,0.9c19.3-2.1,34.7,3.7,55.5,1.2c-1.3,1,9,0.9,13.1,0.9c8.8,0.1,29.6,0.2,25-1.7
				c-6-1.3-18.1,0.8-27.3-0.5c-15.8-2.1,16.5-0.8,16.8-2.6c-2.3,0.3-3.6-1.2-10.6-0.6c14.9-0.8-6.2-2,1.5-3c-17.1-1-15.5-1-24.2-3.3
				c-10.3,0.4-7.4,1.9-10.3,2.7c-10.8,1-19.4-1-28.8-0.5C37.9,2.9,34.6,2.2,29,2c-2.8-0.1-6.2-0.1-9.6-0.1C14.4,2,9.4,2,5.1,2
				c0,1.3,0,2.7,0,3.9c0,3.2,0,5.9,0.1,7.8c0,0.2,0,0.4,0,0.6c0,0.1,0,0.3,0,0.4c0,0.3,0,0.5,0.1,0.7c0,0.5,0.1,0.9,0.1,1.2
				c0.2,1.4,0.5,2.2,0.7,2.9c0.5,1.4,1.1,3,1,11.1C5.9,38.7,5.5,14,4.2,24.7l0.5,7.5c1,4.8,2.2,8.6,2.9,14.4c0,3.4,0,8.5-0.3,8.6
				c-0.4-6.7-1.4-4.6-1.9,2.4c0.4,3.3,0.5,4.1,0.9,5.7C9,49.6,6.5,77.9,8,87.5c2.2,28.3-3.2,14.8-2,42.6c2.4-8.5,1.2,18.4,2.1,27.4
				c-0.1,7.7-0.7,10.5-1.5,16c0.3,2.2,2.5,11,3,11.9c3.2-4.3,4-25.1,6.7-48.2C16.2,136.5,16.2,135.8,16.1,135.8z"/>
		</g>
	</g>
	<path class="st1" d="M88.3,36.2c-1.2-3.2-2.5-5.8-3.2-8.6c-0.2-0.9,0.6-2.5,1.4-3.3c0.4-0.4,2.3,0,2.7,0.7c2.2,3.4,4.2,7,6.4,10.4
		c0.7,0.9,1.8,1.6,2.9,1.8c2,0.4,4.1,0.1,6.1,0.4c0.8,0,1.8,0.4,2.5,0.8c3.5,3,7.1,6,10,9.5c2.3,2.8,3.6,6.4,5.3,9.8
		c4.2,9.2,3.2,18.8,2.8,28.6c-0.2,5.1-3.6,7.5-5.1,11.2s-3.7,7.8-6.8,10.5c-2.3,2.1-6.3,2.8-9.7,3.2c-5.3,0.6-6.5,3.4-5.4,7.4
		c1.5,4.9-1.4,9.7-5.7,10.5c-2.3,0.5-3-0.4-2.8-2.7c0.4-4.3,0.5-8.8,0.5-13.1c-0.1-1.1-0.6-2-1.3-2.7c-2.7-2.1-5.3-4.4-8.2-5.8
		c-2.6-1.3-5.7-1.5-9.2-2.3c0.6,2.6,1.3,4.4,1.4,6.2c0.1,1.6-0.5,3.4-0.7,5c-1.2-0.4-2.5-0.7-3.6-1.2c-6.5-2.5-10.5-8.2-15.1-13
		c-3.3-3.3-6-6.9-8.3-10.9c-1.5-2.8-0.8-6.9-2.5-9.6c-2.5-4-1.6-8.5-0.9-11.8c1.4-6.1,3.3-12.7,9.8-16.5c5-2.8,9.7-6.3,14.5-9.3
		c5.7-3.6,12.4-4.2,18.9-4.9C85.8,36.4,86.7,36.3,88.3,36.2z M80.8,54.6c-2.1,0.5-3.6,0.4-4.6,1.1c-4.9,3.2-9.8,6.1-14.1,9.7
		c-3.4,2.8-5,7.2-4.3,11.6c0.5,3.2,2.7,6.1,4.1,9.1c2.7,6,6.8,5.7,11.8,5.1c4.4-0.6,8.9-1.4,13.3-2.7c1.1-0.2,2.2-2,2.6-3.2
		c0.4-1.6,0-3.5,0-5.3c0-4.9-1.3-6.7-4.6-6.5c-6.9,0.5-13.9,0.8-20.8,1.3c-0.7-0.1-1.4-0.4-2-0.7c0.4-0.6,0.7-1.2,1.3-1.8
		c1.5-1.2,3.4-2,4.6-3.4c2.5-3.2,5.8-4.4,9.5-5.6c2.9-0.8,5.8-1.5,8.8-2.1c2.6-0.5,3.4-1.8,2.6-4.2l-9.5,1.4
		c-0.1-0.4-0.2-0.6-0.4-0.9C79.4,57,79.8,56.3,80.8,54.6z M98.2,86.8c1.9-2.1,3.5-3.4,4.4-5c2.3-4.4,4.3-9,3.9-14.5
		c-0.6-6.4-1.9-8.9-7.1-9.8c-2.7-0.5-3.4,0.8-2.5,2.7c0.9,2,2.2,3.9,3.9,5.4c2,1.8,2,3,0.1,4.6c-0.9,0.8-2.1,1.9-3.4,2.1
		c-2.6,0.4-3,2-2.6,3.9C95.9,79.3,96.9,82.5,98.2,86.8z M74.7,46.6l0.5,1.4l6.4-2.7L81,43.9C78.9,44.8,76.8,45.8,74.7,46.6z
		 M76.6,41.2l0.1,1.1l4.4-1.3l-0.4-1.3L76.6,41.2z M83,43.3l0.1,1.1l4.1-0.6l-0.1-0.9L83,43.3z M70,43.9l0.8,1.2l2.1-1.5L72,42.4
		L70,43.9z M74.2,42.6c0.1,0.1,0.4,0.4,0.5,0.4s0.2-0.2,0.4-0.5c-0.1-0.1-0.4-0.4-0.5-0.4C74.5,42.3,74.4,42.5,74.2,42.6L74.2,42.6z
		"/>
	<g>
		<path class="st1" d="M58.3,167.8c-1.4,0.5-2.4-0.1-3.3-1c-2.7-2.8-5.4-5.8-8.1-8.6c-0.1,0.1-0.3,0.1-0.6,0.3
			c-0.1,2.9-0.3,5.9-0.6,8.8c-0.1,1.6-0.5,3.3-0.8,4.7c-0.1,0.6-0.3,1-0.5,1.6c-0.3-0.3-0.8-0.6-1-0.8c0-0.6-0.1-1.4,0-1.9
			c1.4-4.4,1-8.7,0.1-13.3c-0.5-1.8,0-3.5-0.1-5.3c-0.1-4-0.5-8-0.8-11.7c-0.1-2.4-0.3-4.7-0.5-6.9c0-1.4,1.6-3.7,2.7-3.8
			c1.1-0.3,3.4,0.8,3.8,2.4c0.3,1,0.1,2.4-0.1,3.4c-1.4,4.5-2.8,9.1-2.5,14.1c0,1,0.1,2,0.1,3.4c1.9-1.1,3.7-2.4,5.6-3.3
			c1-0.6,2.4-0.8,3.5-0.9c0.5,0,0.9,0.6,1.4,1c-0.3,0.5-0.6,0.9-1,1c-2,1.4-4.3,2.5-6.2,4c-1.8,1.4-1.5,1.8,0,3.3
			c1.4,1.4,2.5,2.8,3.7,4.2c1,1,1.9,2.3,3.2,3.3c0.8,0.6,1.6,1,2.4,1.5C58.7,167.3,58.5,167.6,58.3,167.8z"/>
		<path class="st1" d="M37.5,160.6c0,0.5-0.1,0.9-0.1,1.4c0.3,1.1,0.6,2.3,0.9,3.4c0,0.5-0.3,0.9-0.5,1.4c-0.3-0.3-0.8-0.5-1-0.9
			c-0.3-0.5-0.6-1-0.8-1.5c-2,1-4,2-6.1,2.9c-2.3,0.9-4.9-0.5-5.3-2.4c-0.8-2.5,1-5.6,3.4-6.3c1.9-0.5,3.7-1.1,5.4-1.9
			c-0.9-3.2-3.3-4.3-5.9-3.2c-1.1,0.5-2.5,0.6-3.8,0.8c-1.6,0-2.3-1.4-1.4-2.5c2.3-2.9,6.2-5.4,10.5-2.9c1,0.6,1.9,1.8,2.4,2.9
			c0.8,2.5,1,5.1,1.6,7.7C36.9,159.6,37.4,160,37.5,160.6z M28.9,164.7c1.5,0,4.7-2.3,5.2-3.7c0.1-0.6-0.1-1.6-0.6-1.8
			c-1.8-0.6-5.6,1.8-5.9,3.7C27.1,164.2,27.8,164.7,28.9,164.7z"/>
		<path class="st1" d="M103.6,156.5c-1.1-3.4-3.4-4.2-6.2-3.2c-1.1,0.5-2.5,0.6-3.8,0.6s-2-1.1-1.1-2.4c2.4-3.4,6.9-6.1,11.4-2.7
			c2.3,1.6,2.3,4.4,2.8,6.8c0.6,2.7,1,5.3,1.5,8c0,0.1,0.1,0.3,0.1,0.3c-0.1,0.8-0.1,1.6-0.3,2.4c-0.5-0.6-1-1-1.5-1.6
			c-0.3-0.3-0.3-0.6-0.5-0.8c-2,1-4,2.3-6.1,2.9c-2.3,0.9-4.9-0.5-5.3-2.4c-0.8-2.7,1-5.8,3.3-6.3C99.8,158,101.7,157.2,103.6,156.5
			z M98.9,164.7c1.5,0,4.5-2,5.1-3.4c0.3-0.8,0.8-1.8-0.8-2c-1.9-0.3-5.2,1.8-5.8,3.5C97.1,164.1,97.5,164.7,98.9,164.7z"/>
		<path class="st1" d="M71.8,164.2c-2,1-4,2-6.1,2.9c-2.4,0.9-4.9-0.5-5.3-2.7c-0.6-2.5,1.1-5.4,3.4-6.1c1.9-0.5,3.7-1.1,5.4-1.9
			c-0.8-2.9-3.2-4.3-5.6-3.4c-1.4,0.5-2.7,0.8-4,0.9c-0.6,0-1.4-0.3-1.6-0.8c-0.3-0.5-0.1-1.5,0.1-1.9c2.3-3.2,6.3-5.6,10.6-2.8
			c1,0.6,1.9,1.9,2.3,2.9c0.8,2.9,1.1,6.1,1.8,9.1c0.3,1.4,0.8,2.8,1,4.2c0.1,0.5-0.3,1-0.5,1.6c-0.5-0.5-0.9-0.8-1.1-1.1
			C72.4,165.1,72,164.4,71.8,164.2z M64.8,164.7c1.5,0,4.5-2,5.1-3.4c0.1-0.6-0.1-1.8-0.5-1.9c-1.8-0.8-5.6,1.8-5.9,3.7
			C63.1,164.2,63.6,164.7,64.8,164.7z"/>
		<path class="st1" d="M79.6,161.5c0.1,3.4,1.1,4.4,4.4,4.7c2,0.1,4.4-2,4.2-3.8c-0.1-0.6-0.5-1.4-0.9-1.6c-2-1.1-4-2.3-6.2-3.2
			c-2.4-0.9-3.4-2.4-2.8-4.9c0.6-2.9,2.3-4.5,5.1-5.2c1.9-0.5,4-1.4,5.8,0.6c0.6,0.6,1.1,1.6,0.9,2.3c-0.3,0.8-1.1,1.4-2,1.5
			c-1,0.3-2.3-0.1-3.2,0.1c-0.9,0.3-2.3-0.5-2.3,1.8c0.6,0.6,1,1.4,1.6,1.8c1.6,1.1,3.4,2.4,4.9,3.5c1.6,1.4,1.5,5.1-0.1,6.7
			c-2.4,2.4-8.1,2.3-10.5-0.3C77.4,164.3,77.8,162.7,79.6,161.5z"/>
		<path class="st1" d="M141.3,150.2c1.6,1.1,1.6,2.5,1.3,3.9c-0.9,3.5,0.5,6.8,1.5,10c0.4,1.1,1.3,2.3,2.1,3.5c-1,1.1-2,0.1-4.7-5.8
			c-0.5,1-0.9,1.6-1.1,2.3c-1,2.5-3.2,3.8-5.4,3.7c-2.5-0.1-5.7-2.1-6.2-4.3c-0.6-2.8-1.1-5.8-1.5-8.6c-0.1-1.3-0.4-2.8,1.1-3.2
			c1-0.1,2.5,0.1,3.3,0.9c1.1,0.9,1.5,2.1,0.9,3.8c-0.6,1.6-1,3.5-0.9,5.3c0.1,2,1.5,3.5,3.7,3.8c2,0.4,2.8-1.1,3.7-2.5
			c1.1-2.1,0.1-4.4,0.6-7.1C139.4,154,139.9,152.1,141.3,150.2z"/>
		<path class="st1" d="M117.6,153.1c2.3-0.8,4.4-1.4,6.4-2c0.1,0,0.5,0.1,0.8,0.3c0.1,0.1,0.3,0.5,0.3,0.6c-1.1,0.5-2.3,0.8-3.3,1.1
			c-3.4,1.8-3.7,5.2-4,8.5c-0.1,1.6-0.3,3.4-0.5,5.1c-0.1,1.4-1,2-2,1.8c-0.6-0.1-1.4-1.4-1.4-1.9c-0.1-2.9,0.1-5.8,0-8.7
			c0-1.1-0.5-2.4-0.9-3.5c-0.9-2.3-0.3-3.8,2-4.2c0.8,0,1.6,0.6,2.3,1.1C117.5,151.7,117.5,152.4,117.6,153.1z"/>
	</g>
</g>
</svg>
