<?xml version="1.0" encoding="utf-8"?>
<!-- Generator: Adobe Illustrator 23.0.1, SVG Export Plug-In . SVG Version: 6.00 Build 0)  -->
<svg version="1.1" id="Layer_1" xmlns="http://www.w3.org/2000/svg" xmlns:xlink="http://www.w3.org/1999/xlink" x="0px" y="0px"
	 viewBox="0 0 165.3 61.4" style="enable-background:new 0 0 165.3 61.4;" xml:space="preserve">
<style type="text/css">
	.st0{fill:#FFFFFF;}
</style>
<title>macaque2</title>
<g id="Layer_3">
	<path class="st0" d="M11.4,17c0.4,0.5,0.2,0.9,0.6,1.4c0.4,0.5,1.1,0.9,1.8,0.9c1.2,0.2,2.4,0.2,3.6-0.1c0.7-0.2,0.8-0.3,1-0.2l0,0
		c-0.2-1.3-0.3-2.6-0.2-3.9c0.1-0.6,0.2-1.1,0.4-1.6c0.4-0.8,0.4-1.8,0.1-2.7c-0.8-1.1-1.8-2.1-3-2.7c-0.1,0.4-0.2,0.8-0.1,1.2
		c0.1,1,0.9,1.3,0.7,2c-0.1,0.4-0.4,0.7-1.6,1.3C12.2,13.9,11,14,10.5,15c-0.2,0.3-0.2,0.8-0.1,1.1C10.6,16.6,11.1,16.6,11.4,17z"/>
	<path class="st0" d="M78.7,35.2c-0.6-0.5-1.3-0.1-2.7-0.2c-1.9-0.2-3.6-1.1-4.9-2.5c-1.2-1.4-2.3-2.9-3.4-4.4
		c0.3-0.6,0.5-1.2,0.6-1.9c0.1-2.1-1.4-4.3-0.7-4.8c0.3-0.2,0.7,0.2,1.4,0c1-0.3,1.8-1.2,1.8-2.2c-0.1-1.2-1.9-1.8-3.4-2.3
		c-2.3-0.7-4.6-1-7-0.8c-10.5,0.5-10.3,0.7-10.7,0.6c-4-0.3-7.9-1.7-11.2-3.9c-3.8-2.6-3.4-4.2-7.2-6.2c-1.8-0.9-5.5-2.7-8.6-1.6
		c-1.4,0.5-2.4,1.5-4.5,1.6c-0.7,0-1.3,0.1-1.8,0.5c-0.2,0.1-0.3,0.3-0.4,0.5c1.3,0.7,2.5,1.7,3.3,3c0.4,1,0.3,2.1-0.1,3.1
		c-0.2,0.5-0.3,1-0.3,1.5c-0.1,1.7,0.1,3.4,0.5,5l0,0l0.1,0.2c-1.3,0.1-3.2,1.5-7.8,2.8c-2.8,1-5.5,2.5-7.8,4.4
		c-0.9,0.7-1.2,1.6-0.8,3.5c0.2,1.1,2.1,2.7,2.8,2.6c1.2-0.2-0.4-3.2,1.5-4.9c1.1-1,2-0.7,4.6-1c-0.2,0.3-0.4,0.7-0.7,1.2
		c-1.1,1.7-1.6,1.7-2,2.6c-0.8,1.9,0.5,4.7,2.1,5.3c0.5,0.2,1,0.2,1.5,0.1c0.2,0,1.1-0.3,1.3-0.8c0.4-1-2-1.9-1.8-3.4
		c0.2-1.5,1.9-2.5,3-3.1c1.8-0.9,3.9-1.3,5.9-1.1c4.2,0.3,4.4,1.9,9.2,2.5c3,0.4,4.5,0.6,6.4-0.1c0.4-0.1,0.7-0.3,1.1-0.5l0.5,0.5
		c1,0.5,2.1,1,3.3,1.3h0.1c2.4,0.5,4.9,0.4,7.2-0.4c0.5-0.2,1-0.3,1.5-0.4c2.1,1.7,6.7,5.5,6.7,5.4c0.9,1.6,2.2,3,3.8,4
		c3.7,2.3,8,1.3,8.7,3.4c0.1,0.5,0.1,1-0.1,1.5c-0.5,1.6-2,1.9-2,3.2c0,0.4,0.2,0.8,0.5,1.2c0.6,0.5,2.5,0.8,2.3,0.1
		c-0.8-2,1.6-2.6,1.5-3.8c-0.1-0.4-0.1-0.9,0.1-1.3c0.3-0.8,0.9-0.9,1-1.4c0-0.2,0.1-0.9-2-2.4c-1.1-0.7-2.3-1.3-3.5-1.8
		c-1.9-1.2-3.3-3-3.9-5.2c1.1,0.5,2.2,1,3.3,1.6c0.7,0.6,1.6,1.1,2.5,1.5c1.9,0.6,2.6-0.2,4.7,0.4c0.5,0.1,2.6,0.7,2.7,1.8
		S75.1,42,75.3,43c0.2,0.8,1.8,1.7,1.9,0.6c0.2-1.7,0.8-0.5,1.4-4.1C79.2,36,78.9,35.5,78.7,35.2z M24.7,13.2
		c-1.2,0.2-0.2-1.1-0.5-2.4s-1.6-2.2-0.5-2.4c1.3-0.1,2.4,0.8,2.6,2.1C26.6,11.7,25.9,12.9,24.7,13.2L24.7,13.2z"/>
</g>
<g id="Layer_3_1_">
	<path class="st0" d="M101.4,17.9c0.1-0.6,0.2-1.1,0.4-1.6c0.4-0.8,0.4-1.8,0.1-2.7c-0.7-1.1-1.7-2-2.9-2.6c0,0.2,0,0.4,0,0.7
		c0.1,1,0.9,1.3,0.8,2c-0.1,0.4-0.4,0.7-1.6,1.3c-2.5,1.3-3.7,1.4-4.2,2.4c-0.2,0.3-0.2,0.8-0.1,1.1c0.2,0.4,0.6,0.3,1,0.8
		c0.4,0.4,0.2,0.9,0.6,1.4s1.1,0.9,1.8,0.9c1.2,0.2,2.4,0.2,3.6-0.1c0.3-0.1,0.6-0.2,0.9-0.2C101.4,20.2,101.3,19.1,101.4,17.9z"/>
	<path class="st0" d="M150.8,19.2c-2.3-0.7-4.6-1-7-0.9c-10.5,0.5-10.3,0.7-10.7,0.7c-4-0.3-7.9-1.7-11.3-3.9
		c-3.8-2.6-3.4-4.2-7.2-6.2c-1.7-0.8-5.4-2.7-8.5-1.6c-1.4,0.5-2.4,1.5-4.5,1.6c-0.7,0-1.3,0.1-1.8,0.5c-0.3,0.3-0.5,0.6-0.7,1
		c1.3,0.7,2.4,1.7,3.2,2.9c0.4,1,0.3,2.1-0.1,3.1c-0.2,0.5-0.3,1-0.3,1.5c-0.1,1.4,0.1,2.7,0.5,4c0.4,0.7,0.4,1.9,1.3,2.4
		c0.7,0.4,1.1,0.1,1.7,0.1l0,0c0.1,0,0.3,0.1,0.4,0.1c1.1,0.6,0.7,2.4,1,4.2c0.3,2,1.3,3.2,3.2,5.5c0.2,0.2,0.4,0.5,0.6,0.7
		c0.8,1.1,1.4,2.4,1.8,3.8c1.3,5.4,2.7,6.2,2.1,8c-0.7,2.4-3.5,2.4-3.8,3.5c-0.5,2.2,3,1.5,4.2,1.4c0,0-1.9,2.5-0.3,2.5
		c2,0.1,4.8,0.1,6.1-1.6c0.6-0.8,0.3-1.2,1.2-3c0.3-0.7,0.7-1.3,1.1-1.9c0.4-0.6,1.3-2.5-0.6-11.1c-0.2-0.9-0.4-2-0.8-3.3
		c1,0.6,2.1,1,3.3,1.3c1.9,0.5,3.8,0.6,5.7,0.3c-0.9,1.6-1.3,3.5-1.3,5.3c0.2,4.4,3.2,7.5,1.9,9.1c-0.3,0.4-0.8,0.7-1.3,0.8
		c-1.1,0.3-2.1,0.4-3.2,0.5c0,0-1.3,0.8-1.5,1.5s0.6,0.7,1.3,1c1.2,0.6,3-0.1,4-0.8c0.3-0.3,0.7-0.5,1.1-0.7
		c0.9-0.2,1.2,0.3,1.7,0.1c0.2-0.1,0.8-0.4,0.9-3c0-1.3-0.1-2.6-0.4-3.9c-0.3-2.9,1.6-5.8,3.3-7.2c0.2-0.2,0.4-0.3,0.6-0.4
		c-0.2,1.7-0.2,3.6-0.4,4.5c-0.3,0.9-0.5,1.9-0.5,2.8c0.1,2,1.1,2.4,1.3,4.6c0,0.5,0.3,2.7-0.7,3.2s-2.6-0.4-3.5,0.2
		c-0.7,0.4-0.6,1.2,0.1,2c0.2,0.2,0.7,0.6,4.3-0.2c3.5-0.7,3.8-1.2,3.9-1.5c0.3-0.7-0.4-1.2-0.8-2.5c-0.5-1.8-0.3-3.8,0.5-5.5
		c1.4-3,7.5-11.2,8.7-14c0.4-0.7,0.7-1.4,0.8-2.2c0.1-2.1-1.4-4.3-0.7-4.8c0.3-0.2,0.7,0.2,1.4,0c1-0.3,1.8-1.1,1.8-2.2
		C154.1,20.3,152.3,19.7,150.8,19.2z M106.6,15.2c-1.2,0.2-0.2-1.1-0.5-2.6s-1.7-2.4-0.4-2.6c1.3-0.1,2.5,0.8,2.7,2.2
		C108.7,13.6,107.9,14.9,106.6,15.2L106.6,15.2z M118,50.7c-0.6,0.3-1.2,0.4-1.8,0.2c0.4-0.4,0.7-0.9,0.8-1.4
		c0.6-2.4,0.8-4.9,0.7-7.4c0.8,1.4,1.3,2.9,1.4,4.5C119.2,47.8,119.3,49.7,118,50.7z"/>
</g>
</svg>
