<?xml version="1.0" encoding="utf-8"?>
<!-- Generator: Adobe Illustrator 23.0.1, SVG Export Plug-In . SVG Version: 6.00 Build 0)  -->
<svg version="1.1" id="Layer_1" xmlns="http://www.w3.org/2000/svg" xmlns:xlink="http://www.w3.org/1999/xlink" x="0px" y="0px"
	 viewBox="0 0 400 950" style="enable-background:new 0 0 400 950;" xml:space="preserve">
<style type="text/css">
	.st0{fill:#EA6D47;}
</style>
<path class="st0" d="M0.2,0.9c0,3.9,0,7.7,0,11.6c7.2,0.3,13,6.2,13,13.5s-5.8,13.2-13,13.5c0,5.2,0,10.4,0,15.6
	c7.2,0.3,13,6.2,13,13.5s-5.8,13.2-13,13.5c0,5.2,0,10.4,0,15.6c7.2,0.3,13,6.2,13,13.5s-5.8,13.2-13,13.5c0,5.2,0,10.4,0,15.6
	c7.2,0.3,13,6.2,13,13.5s-5.8,13.2-13,13.5c0,5.2,0,10.4,0,15.6c7.2,0.3,13,6.2,13,13.5s-5.8,13.2-13,13.5c0,5.2,0,10.4,0,15.6
	c7.2,0.3,13,6.2,13,13.5s-5.8,13.2-13,13.5c0,5.2,0,10.4,0,15.6c7.2,0.3,13,6.2,13,13.5s-5.8,13.2-13,13.5c0,5.2,0,10.4,0,15.6
	c7.2,0.3,13,6.2,13,13.5s-5.8,13.2-13,13.5c0,5.2,0,10.4,0,15.6c7.2,0.3,13,6.2,13,13.5s-5.8,13.2-13,13.5c0,5.2,0,10.4,0,15.6
	c7.2,0.3,13,6.2,13,13.5s-5.8,13.2-13,13.5c0,5.2,0,10.4,0,15.6c7.2,0.3,13,6.2,13,13.5s-5.8,13.2-13,13.5c0,5.2,0,10.4,0,15.6
	c7.2,0.3,13,6.2,13,13.5s-5.8,13.2-13,13.5c0,5.2,0,10.4,0,15.6c7.2,0.3,13,6.2,13,13.5s-5.8,13.2-13,13.5c0,5.2,0,10.4,0,15.6
	c7.2,0.3,13,6.2,13,13.5s-5.8,13.2-13,13.5c0,5.2,0,10.4,0,15.6c7.2,0.3,13,6.2,13,13.5s-5.8,13.2-13,13.5c0,5.2,0,10.4,0,15.6
	c7.2,0.3,13,6.2,13,13.5s-5.8,13.2-13,13.5c0,5.2,0,10.4,0,15.6c7.2,0.3,13,6.2,13,13.5s-5.8,13.2-13,13.5c0,5.2,0,10.4,0,15.6
	c7.2,0.3,13,6.2,13,13.5s-5.8,13.2-13,13.5c0,5.2,0,10.4,0,15.6c7.2,0.3,13,6.2,13,13.5s-5.8,13.2-13,13.5c0,5.2,0,10.4,0,15.6
	c7.2,0.3,13,6.2,13,13.5s-5.8,13.2-13,13.5c0,5.2,0,10.4,0,15.6c7.2,0.3,13,6.2,13,13.5s-5.8,13.2-13,13.5c0,5.2,0,10.4,0,15.6
	c7.2,0.3,13,6.2,13,13.5s-5.8,13.2-13,13.5c0,4.4,0,8.8,0,13.2c-0.1,0.7-0.3,1.3-0.4,2c132.9,0,265.8,0,398.7,0
	c0.1-0.7,0.3-1.3,0.4-2c0-315.4,0-630.8,0-946.2H0.2V0.9z"/>
</svg>
