<?xml version="1.0" encoding="utf-8"?>
<!-- Generator: Adobe Illustrator 23.0.1, SVG Export Plug-In . SVG Version: 6.00 Build 0)  -->
<svg version="1.1" id="Layer_1" xmlns="http://www.w3.org/2000/svg" xmlns:xlink="http://www.w3.org/1999/xlink" x="0px" y="0px"
	 viewBox="0 0 900 627" style="enable-background:new 0 0 900 627;" xml:space="preserve">
<style type="text/css">
	.st0{fill:#FFCE00;}
</style>
<g>
	<path class="st0" d="M3.8,21.9c0,6.7,0,13.5,0,20.2c1.8-1.1,3.8-1.8,6.1-1.8c6.2,0,11.3,5,11.3,11.3S16,62.8,9.8,62.8
		c-2.2,0-4.3-0.7-6.1-1.8c0,5.1,0,10.2,0,15.3c1.8-1.1,3.8-1.8,6.1-1.8c6.2,0,11.3,5,11.3,11.3S16,97.1,9.8,97.1
		c-2.2,0-4.3-0.7-6.1-1.8c0,5.1,0,10.2,0,15.3c1.8-1.1,3.8-1.8,6.1-1.8c6.2,0,11.3,5,11.3,11.3s-5,11.3-11.3,11.3
		c-2.2,0-4.3-0.7-6.1-1.8c0,5.1,0,10.2,0,15.3c1.8-1.1,3.8-1.8,6.1-1.8c6.2,0,11.3,5,11.3,11.3s-5,11.3-11.3,11.3
		c-2.2,0-4.3-0.7-6.1-1.8c0,5.1,0,10.2,0,15.3c1.8-1.1,3.8-1.8,6.1-1.8c6.2,0,11.3,5,11.3,11.3S16.1,200,9.8,200
		c-2.2,0-4.3-0.7-6.1-1.8c0,5.1,0,10.2,0,15.3c1.8-1.1,3.8-1.8,6.1-1.8c6.2,0,11.3,5,11.3,11.3s-5,11.3-11.3,11.3
		c-2.2,0-4.3-0.7-6.1-1.8c0,5.1,0,10.2,0,15.3c1.8-1.1,3.8-1.8,6.1-1.8c6.2,0,11.3,5,11.3,11.3c0,6.2-5,11.3-11.3,11.3
		c-2.2,0-4.3-0.7-6.1-1.8c0,5.1,0,10.2,0,15.3c1.8-1.1,3.8-1.8,6.1-1.8c6.2,0,11.3,5,11.3,11.3s-5,11.3-11.3,11.3
		c-2.2,0-4.3-0.7-6.1-1.8c0,5.1,0,10.2,0,15.3c1.8-1.1,3.8-1.8,6.1-1.8c6.2,0,11.3,5,11.3,11.3s-5,11.3-11.3,11.3
		c-2.2,0-4.3-0.7-6.1-1.8c0,5.1,0,10.2,0,15.3c1.8-1.1,3.8-1.8,6.1-1.8c6.2,0,11.3,5,11.3,11.3s-5,11.3-11.3,11.3
		c-2.2,0-4.3-0.7-6.1-1.8c0,5.1,0,10.2,0,15.3c1.8-1.1,3.8-1.8,6.1-1.8c6.2,0,11.3,5,11.3,11.3s-5,11.3-11.3,11.3
		c-2.2,0-4.3-0.7-6.1-1.8c0,5.1,0,10.2,0,15.3c1.8-1.1,3.8-1.8,6.1-1.8c6.2,0,11.3,5,11.3,11.3s-5,11.3-11.3,11.3
		c-2.2,0-4.3-0.7-6.1-1.8c0,5.1,0,10.2,0,15.3c1.8-1.1,3.8-1.8,6.1-1.8c6.2,0,11.3,5,11.3,11.3s-5,11.3-11.3,11.3
		c-2.2,0-4.3-0.7-6.1-1.8c0,5.1,0,10.2,0,15.3c1.8-1.1,3.8-1.8,6.1-1.8c6.2,0,11.3,5,11.3,11.3s-5,11.3-11.3,11.3
		c-2.2,0-4.3-0.7-6.1-1.8c0,5.1,0,10.2,0,15.3c1.8-1.1,3.8-1.8,6.1-1.8c6.2,0,11.3,5,11.3,11.3S16.1,543,9.8,543
		c-2.2,0-4.3-0.7-6.1-1.8c0,5.1,0,10.2,0,15.3c1.8-1.1,3.8-1.8,6.1-1.8c6.2,0,11.3,5,11.3,11.3s-5,11.3-11.3,11.3
		c-2.2,0-4.3-0.7-6.1-1.8c0,5.1,0,10.2,0,15.3c1.8-1.1,3.8-1.8,6.1-1.8c6.2,0,11.3,5,11.3,11.3c0,6.2-5,11.3-11.3,11.3
		c-2.2,0-4.3-0.7-6.1-1.8c0,4.8,0,9.6,0,14.4c0.3,0.4,0.6,0.8,0.9,1.3c297.1,0,594.2,0,891.3,0c0.3-0.4,0.6-0.8,0.9-1.3
		c0-200.6,0-401.1,0-601.7L3.8,21.9L3.8,21.9z"/>
	<path class="st0" d="M2.4,623.9c0.3,0.3,0.6,0.6,0.9,0.9C3,624.5,2.7,624.2,2.4,623.9z"/>
	<path class="st0" d="M894.5,624.8c0.3-0.3,0.6-0.6,0.9-0.9C895.1,624.2,894.8,624.5,894.5,624.8z"/>
</g>
</svg>
