<?xml version="1.0" encoding="utf-8"?>
<!-- Generator: Adobe Illustrator 23.0.1, SVG Export Plug-In . SVG Version: 6.00 Build 0)  -->
<svg version="1.1" id="Layer_1" xmlns="http://www.w3.org/2000/svg" xmlns:xlink="http://www.w3.org/1999/xlink" x="0px" y="0px"
	 viewBox="0 0 450 1500" style="enable-background:new 0 0 450 1500;" xml:space="preserve">
<style type="text/css">
	.st0{fill:#F1F1F1;}
	.st1{fill:#FCF4EA;}
	.st2{fill:#439B8E;}
	.st3{fill:#438376;}
	.st4{fill:#6EB6A1;}
</style>
<path class="st0" d="M-2.2,1501.3c0.3,0.3,0.6,0.6,0.9,0.9C-1.7,1501.8-1.9,1501.5-2.2,1501.3z"/>
<path class="st1" d="M446.4,1495.4c0.3-0.3,0.6-0.6,0.9-0.9C447,1494.8,446.7,1495.1,446.4,1495.4z"/>
<path class="st2" d="M450.5,1458.8c0-128,0-1327.7,0-1455.7H-0.4c0,139.9,0,1351.5,0,1491.4c0.3,0.3,0.6,0.6,0.9,0.9
	c287.2,0,125,0,412.1,0C424.5,1483.9,438.4,1470.4,450.5,1458.8z"/>
<polygon class="st3" points="412.6,1495.4 404.9,1460.3 436.7,1462.6 "/>
<polygon class="st4" points="412.6,1495.4 413.1,1456.8 450,1459.3 "/>
</svg>
