<?xml version="1.0" encoding="utf-8"?>
<!-- Generator: Adobe Illustrator 23.0.1, SVG Export Plug-In . SVG Version: 6.00 Build 0)  -->
<svg version="1.1" id="Layer_1" xmlns="http://www.w3.org/2000/svg" xmlns:xlink="http://www.w3.org/1999/xlink" x="0px" y="0px"
	 viewBox="0 0 313.2 1500" style="enable-background:new 0 0 313.2 1500;" xml:space="preserve">
<style type="text/css">
	.st0{fill:#FFCE00;}
</style>
<path class="st0" d="M0,1.6v9c0.2,0,0.5,0,0.7,0c4.9,0,8.8,3.9,8.8,8.8s-3.9,8.8-8.8,8.8c-0.2,0-0.5,0-0.7,0v11.1c0.2,0,0.5,0,0.7,0
	c4.9,0,8.8,3.9,8.8,8.8s-3.9,8.8-8.8,8.8c-0.2,0-0.5,0-0.7,0V68c0.2,0,0.5,0,0.7,0c4.9,0,8.8,3.9,8.8,8.8s-3.9,8.8-8.8,8.8
	c-0.2,0-0.5,0-0.7,0v11.1c0.2,0,0.5,0,0.7,0c4.9,0,8.8,3.9,8.8,8.8s-3.9,8.8-8.8,8.8c-0.2,0-0.5,0-0.7,0v11.1c0.2,0,0.5,0,0.7,0
	c4.9,0,8.8,3.9,8.8,8.8c0,4.9-3.9,8.8-8.8,8.8c-0.2,0-0.5,0-0.7,0v11.1c0.2,0,0.5,0,0.7,0c4.9,0,8.8,3.9,8.8,8.8s-3.9,8.8-8.8,8.8
	c-0.2,0-0.5,0-0.7,0v11.1c0.2,0,0.5,0,0.7,0c4.9,0,8.8,3.9,8.8,8.8c0,4.9-3.9,8.8-8.8,8.8c-0.2,0-0.5,0-0.7,0V211c0.2,0,0.5,0,0.7,0
	c4.9,0,8.8,3.9,8.8,8.8s-3.9,8.8-8.8,8.8c-0.2,0-0.5,0-0.7,0v11.1c0.2,0,0.5,0,0.7,0c4.9,0,8.8,3.9,8.8,8.8c0,4.9-3.9,8.8-8.8,8.8
	c-0.2,0-0.5,0-0.7,0v11.1c0.2,0,0.5,0,0.7,0c4.9,0,8.8,3.9,8.8,8.8S5.6,286,0.7,286c-0.2,0-0.5,0-0.7,0v11.1c0.2,0,0.5,0,0.7,0
	c4.9,0,8.8,3.9,8.8,8.8s-3.9,8.8-8.8,8.8c-0.2,0-0.5,0-0.7,0v11.1c0.2,0,0.5,0,0.7,0c4.9,0,8.8,3.9,8.8,8.8s-3.9,8.8-8.8,8.8
	c-0.2,0-0.5,0-0.7,0v11.1c0.2,0,0.5,0,0.7,0c4.9,0,8.8,3.9,8.8,8.8s-3.9,8.8-8.8,8.8c-0.2,0-0.5,0-0.7,0v11.1c0.2,0,0.5,0,0.7,0
	c4.9,0,8.8,3.9,8.8,8.8s-3.9,8.8-8.8,8.8c-0.2,0-0.5,0-0.7,0v11.1c0.2,0,0.5,0,0.7,0c4.9,0,8.8,3.9,8.8,8.8s-4,8.3-8.8,8.3
	c-0.2,0-0.5,0-0.7,0v11.1c0.2,0,0.5,0,0.7,0c4.9,0,8.8,3.9,8.8,8.8s-3.9,8.8-8.8,8.8c-0.2,0-0.5,0-0.7,0v11.1c0.2,0,0.5,0,0.7,0
	c4.9,0,8.8,3.9,8.8,8.8s-3.9,8.8-8.8,8.8c-0.2,0-0.5,0-0.7,0v11.1c0.2,0,0.5,0,0.7,0c4.9,0,8.8,3.9,8.8,8.8s-3.9,8.8-8.8,8.8
	c-0.2,0-0.5,0-0.7,0V526c0.2,0,0.5,0,0.7,0c4.9,0,8.8,3.9,8.8,8.8s-3.9,8.8-8.8,8.8c-0.2,0-0.5,0-0.7,0v11.1c0.2,0,0.5,0,0.7,0
	c4.9,0,8.8,3.9,8.8,8.8c0,4.9-3.9,8.8-8.8,8.8c-0.2,0-0.5,0-0.7,0v11.1c0.2,0,0.5,0,0.7,0c4.9,0,8.8,3.9,8.8,8.8
	c0,4.9-3.9,8.8-8.8,8.8c-0.2,0-0.5,0-0.7,0v11.1c0.2,0,0.5,0,0.7,0c4.9,0,8.8,3.9,8.8,8.8c0,4.9-3.9,8.8-8.8,8.8c-0.2,0-0.5,0-0.7,0
	v11.1c0.2,0,0.5,0,0.7,0c4.9,0,8.8,3.9,8.8,8.8c0,4.9-3.9,8.8-8.8,8.8c-0.2,0-0.5,0-0.7,0v11.1c0.2,0,0.5,0,0.7,0
	c4.9,0,8.8,3.9,8.8,8.8c0,4.9-3.9,8.8-8.8,8.8c-0.2,0-0.5,0-0.7,0v11.1c0.2,0,0.5,0,0.7,0c4.9,0,8.8,3.9,8.8,8.8s-3.9,8.8-8.8,8.8
	c-0.2,0-0.5,0-0.7,0v11.1c0.2,0,0.5,0,0.7,0c4.9,0,8.8,3.9,8.8,8.8s-3.9,8.8-8.8,8.8c-0.2,0-0.5,0-0.7,0V755c0.2,0,0.5,0,0.7,0
	c4.9,0,8.8,3.9,8.8,8.8s-3.9,8.8-8.8,8.8c-0.2,0-0.5,0-0.7,0v11.1c0.2,0,0.5,0,0.7,0c4.9,0,8.8,3.9,8.8,8.8s-3.9,8.8-8.8,8.8
	c-0.2,0-0.5,0-0.7,0v11.1c0.2,0,0.5,0,0.7,0c4.9,0,8.8,3.9,8.8,8.8S5.6,830,0.7,830c-0.2,0-0.5,0-0.7,0v11.1c0.2,0,0.5,0,0.7,0
	c4.9,0,8.8,3.9,8.8,8.8c0,4.9-3.9,8.8-8.8,8.8c-0.2,0-0.5,0-0.7,0v11.1c0.2,0,0.5,0,0.7,0c4.9,0,8.8,3.9,8.8,8.8
	c0,4.9-3.9,8.8-8.8,8.8c-0.2,0-0.5,0-0.7,0v11.1c0.2,0,0.5,0,0.7,0c4.9,0,8.8,3.9,8.8,8.8c0,4.9-3.9,8.8-8.8,8.8c-0.2,0-0.5,0-0.7,0
	v11.1c0.2,0,0.5,0,0.7,0c4.9,0,8.8,3.9,8.8,8.8c0,4.9-3.9,8.8-8.8,8.8c-0.2,0-0.5,0-0.7,0v11.1c0.2,0,0.5,0,0.7,0
	c4.9,0,8.8,3.9,8.8,8.8c0,4.9-3.9,8.8-8.8,8.8c-0.2,0-0.5,0-0.7,0V984c0.2,0,0.5,0,0.7,0c4.9,0,8.8,3.9,8.8,8.8s-3.9,8.8-8.8,8.8
	c-0.2,0-0.5,0-0.7,0v11.1c0.2,0,0.5,0,0.7,0c4.9,0,8.8,3.9,8.8,8.8s-3.9,8.8-8.8,8.8c-0.2,0-0.5,0-0.7,0v11.1c0.2,0,0.5,0,0.7,0
	c4.9,0,8.8,3.9,8.8,8.8s-3.9,8.8-8.8,8.8c-0.2,0-0.5,0-0.7,0v11.1c0.2,0,0.5,0,0.7,0c4.9,0,8.8,3.9,8.8,8.8s-3.9,8.8-8.8,8.8
	c-0.2,0-0.5,0-0.7,0v11.1c0.2,0,0.5,0,0.7,0c4.9,0,8.8,3.9,8.8,8.8s-3.9,8.8-8.8,8.8c-0.2,0-0.5,0-0.7,0v11.1c0.2,0,0.5,0,0.7,0
	c4.9,0,8.8,3.9,8.8,8.8s-3.9,8.8-8.8,8.8c-0.2,0-0.5,0-0.7,0v11.1c0.2,0,0.5,0,0.7,0c4.9,0,8.8,3.9,8.8,8.8s-3.9,8.8-8.8,8.8
	c-0.2,0-0.5,0-0.7,0v11.1c0.2,0,0.5,0,0.7,0c4.9,0,8.8,3.9,8.8,8.8s-3.9,8.8-8.8,8.8c-0.2,0-0.5,0-0.7,0v11.1c0.2,0,0.5,0,0.7,0
	c4.9,0,8.8,3.9,8.8,8.8s-3.9,8.8-8.8,8.8c-0.2,0-0.5,0-0.7,0v11.1c0.2,0,0.5,0,0.7,0c4.9,0,8.8,3.9,8.8,8.8s-3.9,8.8-8.8,8.8
	c-0.2,0-0.5,0-0.7,0v11.1c0.2,0,0.5,0,0.7,0c4.9,0,8.8,3.9,8.8,8.8s-3.9,8.8-8.8,8.8c-0.2,0-0.5,0-0.7,0v11.1c0.2,0,0.5,0,0.7,0
	c4.9,0,8.8,3.9,8.8,8.8s-3.9,8.8-8.8,8.8c-0.2,0-0.5,0-0.7,0v11.1c0.2,0,0.5,0,0.7,0c4.9,0,8.8,3.9,8.8,8.8s-3.9,8.8-8.8,8.8
	c-0.2,0-0.5,0-0.7,0v11.1c0.2,0,0.5,0,0.7,0c4.9,0,8.8,3.9,8.8,8.8s-3.9,8.8-8.8,8.8c-0.2,0-0.5,0-0.7,0v11.1c0.2,0,0.5,0,0.7,0
	c4.9,0,8.8,3.9,8.8,8.8s-3.9,8.8-8.8,8.8c-0.2,0-0.5,0-0.7,0v11.1c0.2,0,0.5,0,0.7,0c4.9,0,8.8,3.9,8.8,8.8s-3.9,8.8-8.8,8.8
	c-0.2,0-0.5,0-0.7,0v11.1c0.2,0,0.5,0,0.7,0c4.9,0,8.8,3.9,8.8,8.8s-3.9,8.8-8.8,8.8c-0.2,0-0.5,0-0.7,0v11.1c0.2,0,0.5,0,0.7,0
	c4.9,0,8.8,3.9,8.8,8.8s-3.9,8.8-8.8,8.8c-0.2,0-0.5,0-0.7,0v9.8c104.4,0,208.8,0,313.2,0c0.1-1.1,0.3-2.1,0.3-3.2
	c0-497.8,0-995.5,0-1493.3H0V1.6z"/>
</svg>
