<?xml version="1.0" encoding="utf-8"?>
<!-- Generator: Adobe Illustrator 23.0.1, SVG Export Plug-In . SVG Version: 6.00 Build 0)  -->
<svg version="1.1" id="Layer_1" xmlns="http://www.w3.org/2000/svg" xmlns:xlink="http://www.w3.org/1999/xlink" x="0px" y="0px"
	 viewBox="0 0 320 1500" style="enable-background:new 0 0 320 1500;" xml:space="preserve">
<style type="text/css">
	.st0{fill:none;}
	.st1{fill:none;stroke:#AAAAAA;stroke-width:0.3;}
	.st2{opacity:0.9;}
	.st3{fill:#FFFFFF;}
	.st4{fill:#EDEDED;}
	.st5{fill:url(#SVGID_3_);stroke:url(#SVGID_4_);}
</style>
<pattern  y="1500" width="72" height="72" patternUnits="userSpaceOnUse" id="SVGID_1_" viewBox="4.2 -74.2 72 72" style="overflow:visible;">
	<g>
		<rect x="4.2" y="-74.2" class="st0" width="72" height="72"/>
		<g>
			<rect x="4.2" y="-74.2" class="st0" width="72" height="72"/>
			<rect x="4.2" y="-74.2" class="st0" width="72" height="72"/>
			<rect x="4.2" y="-74.2" class="st0" width="72" height="72"/>
			<line class="st1" x1="71" y1="-75.1" x2="72.1" y2="-72.2"/>
			<line class="st1" x1="66.1" y1="-75.3" x2="65.5" y2="-72"/>
			<line class="st1" x1="50.9" y1="-76.1" x2="51" y2="-73.1"/>
			<line class="st1" x1="35.2" y1="-74.5" x2="33.8" y2="-72.5"/>
			<line class="st1" x1="19" y1="-74.7" x2="20.3" y2="-72.7"/>
			<line class="st1" x1="7.9" y1="-76" x2="6.2" y2="-73.7"/>
			<line class="st1" x1="58.5" y1="-76.3" x2="60.5" y2="-73.3"/>
			<line class="st1" x1="77.8" y1="-26.3" x2="74.8" y2="-26.3"/>
			<line class="st1" x1="76.8" y1="-42" x2="74.8" y2="-43.5"/>
			<line class="st1" x1="8.8" y1="-13" x2="6" y2="-15"/>
			<line class="st1" x1="7.3" y1="-69.3" x2="5" y2="-71"/>
			<line class="st1" x1="76.3" y1="-9.3" x2="73" y2="-10"/>
			<line class="st1" x1="75" y1="-21" x2="72.5" y2="-22.8"/>
			<line class="st1" x1="77.8" y1="-26.3" x2="74.8" y2="-26.3"/>
			<line class="st1" x1="74.5" y1="-33.8" x2="71.8" y2="-32"/>
			<line class="st1" x1="76.8" y1="-42" x2="74.8" y2="-43.5"/>
			<line class="st1" x1="74.3" y1="-54" x2="71.5" y2="-51.8"/>
			<line class="st1" x1="76.3" y1="-65" x2="72" y2="-64.3"/>
			<line class="st1" x1="66.5" y1="-63.3" x2="64.3" y2="-65"/>
			<line class="st1" x1="74.8" y1="-47.3" x2="71.8" y2="-47.3"/>
			<line class="st1" x1="61" y1="-19.8" x2="59.1" y2="-17"/>
			<line class="st1" x1="31" y1="-18.3" x2="29.4" y2="-15.7"/>
			<line class="st1" x1="46.1" y1="-13.9" x2="47.9" y2="-11.2"/>
			<line class="st1" x1="71" y1="-75.1" x2="72.1" y2="-72.2"/>
			<line class="st1" x1="66.1" y1="-75.3" x2="65.5" y2="-72"/>
			<line class="st1" x1="60" y1="-50.3" x2="58.1" y2="-47.5"/>
			<line class="st1" x1="51.7" y1="-21.9" x2="50" y2="-19.3"/>
			<line class="st1" x1="50.9" y1="-76.1" x2="51" y2="-73.1"/>
			<line class="st1" x1="43.6" y1="-72.6" x2="45.4" y2="-69.9"/>
			<line class="st1" x1="35.2" y1="-74.5" x2="33.8" y2="-72.5"/>
			<line class="st1" x1="53.3" y1="-43.1" x2="55.7" y2="-40.4"/>
			<line class="st1" x1="19" y1="-74.7" x2="20.3" y2="-72.7"/>
			<line class="st1" x1="12.3" y1="-73.2" x2="13.2" y2="-68.9"/>
			<line class="st1" x1="7.9" y1="-76" x2="6.2" y2="-73.7"/>
			<line class="st1" x1="30.1" y1="-72.3" x2="30.2" y2="-69.3"/>
			<line class="st1" x1="10.3" y1="-7.5" x2="13.8" y2="-9"/>
			<line class="st1" x1="7.5" y1="-23" x2="7.8" y2="-19.8"/>
			<line class="st1" x1="11" y1="-46" x2="12.5" y2="-49.8"/>
			<line class="st1" x1="8.3" y1="-40.5" x2="10.5" y2="-36.8"/>
			<line class="st1" x1="32.3" y1="-6.8" x2="30" y2="-9.3"/>
			<line class="st1" x1="36.5" y1="-6.8" x2="39.8" y2="-9.5"/>
			<line class="st1" x1="53.3" y1="-6.8" x2="56.5" y2="-8.8"/>
			<line class="st1" x1="55.5" y1="-12.8" x2="53.5" y2="-16"/>
			<line class="st1" x1="62.5" y1="-11.5" x2="67.5" y2="-9.3"/>
			<line class="st1" x1="70" y1="-15" x2="67.5" y2="-16.8"/>
			<line class="st1" x1="21.8" y1="-7" x2="21.8" y2="-10"/>
			<line class="st1" x1="18.8" y1="-12" x2="15.5" y2="-12.5"/>
			<line class="st1" x1="23" y1="-16.5" x2="23.5" y2="-19.8"/>
			<line class="st1" x1="24" y1="-12" x2="27.5" y2="-11.3"/>
			<line class="st1" x1="12.3" y1="-23.8" x2="15" y2="-21.8"/>
			<line class="st1" x1="10.5" y1="-66.3" x2="10.8" y2="-62.3"/>
			<line class="st1" x1="10.3" y1="-58" x2="12.5" y2="-55.5"/>
			<line class="st1" x1="24.3" y1="-68" x2="21.8" y2="-64.5"/>
			<line class="st1" x1="32.8" y1="-30.8" x2="30.3" y2="-32.5"/>
			<line class="st1" x1="60.8" y1="-36" x2="58" y2="-34.5"/>
			<line class="st1" x1="29.8" y1="-42.3" x2="26" y2="-41.5"/>
			<line class="st1" x1="34.5" y1="-51.8" x2="32.5" y2="-53.3"/>
			<line class="st1" x1="32" y1="-63.8" x2="29.3" y2="-61.5"/>
			<line class="st1" x1="35.3" y1="-68" x2="33.3" y2="-66.8"/>
			<line class="st1" x1="32.5" y1="-57" x2="29.5" y2="-57"/>
			<line class="st1" x1="42.8" y1="-21.3" x2="40.3" y2="-23"/>
			<line class="st1" x1="45.5" y1="-26.5" x2="42.5" y2="-26.5"/>
			<line class="st1" x1="42.3" y1="-34" x2="39.5" y2="-32.3"/>
			<line class="st1" x1="41.5" y1="-44.8" x2="40.8" y2="-47.3"/>
			<line class="st1" x1="42" y1="-54.3" x2="39.3" y2="-52"/>
			<line class="st1" x1="42.5" y1="-62.3" x2="40.5" y2="-61"/>
			<line class="st1" x1="66" y1="-46.8" x2="63" y2="-46.8"/>
			<line class="st1" x1="25.3" y1="-45.3" x2="27.8" y2="-47"/>
			<line class="st1" x1="30" y1="-22.8" x2="33" y2="-22.8"/>
			<line class="st1" x1="17.8" y1="-37" x2="20.3" y2="-38.8"/>
			<line class="st1" x1="15" y1="-42.3" x2="18" y2="-42.3"/>
			<line class="st1" x1="18.3" y1="-49.8" x2="21" y2="-48"/>
			<line class="st1" x1="50.3" y1="-35.3" x2="52.7" y2="-33.7"/>
			<line class="st1" x1="50.6" y1="-27.8" x2="53" y2="-29.6"/>
			<line class="st1" x1="57.7" y1="-23.8" x2="57.5" y2="-26.8"/>
			<line class="st1" x1="48.4" y1="-67.9" x2="51.4" y2="-68"/>
			<line class="st1" x1="49.4" y1="-62" x2="51.7" y2="-63.8"/>
			<line class="st1" x1="56.5" y1="-58" x2="57.6" y2="-61.1"/>
			<line class="st1" x1="51.3" y1="-45.8" x2="48.8" y2="-47.5"/>
			<line class="st1" x1="51" y1="-53.3" x2="47.8" y2="-52.3"/>
			<line class="st1" x1="60" y1="-68.8" x2="57.3" y2="-67"/>
			<line class="st1" x1="67.5" y1="-43.3" x2="64.8" y2="-41.5"/>
			<line class="st1" x1="65.3" y1="-54.3" x2="63.3" y2="-55.8"/>
			<line class="st1" x1="22.6" y1="-31.9" x2="25.7" y2="-32"/>
			<line class="st1" x1="23.6" y1="-26" x2="26" y2="-27.8"/>
			<line class="st1" x1="60.8" y1="-30.8" x2="63.5" y2="-31.3"/>
			<line class="st1" x1="18" y1="-58" x2="18.5" y2="-61.3"/>
			<line class="st1" x1="20" y1="-56" x2="23.5" y2="-55.3"/>
			<line class="st1" x1="35.8" y1="-15" x2="39.8" y2="-15.8"/>
			<line class="st1" x1="36.5" y1="-35.8" x2="37" y2="-39.3"/>
			<line class="st1" x1="67.5" y1="-25.3" x2="65" y2="-24"/>
			<line class="st1" x1="13" y1="-15.8" x2="16.3" y2="-18.5"/>
			<line class="st1" x1="7.8" y1="-31.8" x2="5.3" y2="-33.5"/>
			<line class="st1" x1="18.8" y1="-26.3" x2="16.8" y2="-27.8"/>
			<line class="st1" x1="44.3" y1="-7.1" x2="46.2" y2="-4.4"/>
			<line class="st1" x1="67.6" y1="-37.4" x2="69.4" y2="-34.7"/>
			<line class="st1" x1="36.8" y1="-28.6" x2="37.5" y2="-25.8"/>
			<line class="st1" x1="23.3" y1="-61.1" x2="24" y2="-58.3"/>
			<line class="st1" x1="34.8" y1="-45" x2="32.8" y2="-46.5"/>
			<line class="st1" x1="5.8" y1="-26.3" x2="2.8" y2="-26.3"/>
			<line class="st1" x1="4.8" y1="-42" x2="2.8" y2="-43.5"/>
			<line class="st1" x1="71" y1="-3.1" x2="72.1" y2="-0.2"/>
			<line class="st1" x1="66.1" y1="-3.3" x2="65.5" y2="0"/>
			<line class="st1" x1="50.9" y1="-4.1" x2="51" y2="-1.1"/>
			<line class="st1" x1="35.2" y1="-2.5" x2="33.8" y2="-0.5"/>
			<line class="st1" x1="19" y1="-2.7" x2="20.3" y2="-0.7"/>
			<line class="st1" x1="7.9" y1="-4" x2="6.2" y2="-1.7"/>
			<line class="st1" x1="8.3" y1="-54.3" x2="4.5" y2="-53.5"/>
			<line class="st1" x1="71.4" y1="-59.6" x2="69.5" y2="-56.8"/>
			<line class="st1" x1="27" y1="-38.3" x2="27.7" y2="-35.5"/>
			<line class="st1" x1="47.8" y1="-39.3" x2="45.8" y2="-40.8"/>
			<line class="st1" x1="58.5" y1="-4.3" x2="60.5" y2="-1.3"/>
			<line class="st1" x1="58.5" y1="-76.3" x2="60.5" y2="-73.3"/>
			<line class="st1" x1="4.3" y1="-9.3" x2="1" y2="-10"/>
			<line class="st1" x1="5.8" y1="-26.3" x2="2.8" y2="-26.3"/>
			<line class="st1" x1="4.8" y1="-42" x2="2.8" y2="-43.5"/>
			<line class="st1" x1="4.3" y1="-65" x2="0" y2="-64.3"/>
			<line class="st1" x1="71" y1="-3.1" x2="72.1" y2="-0.2"/>
			<line class="st1" x1="66.1" y1="-3.3" x2="65.5" y2="0"/>
			<line class="st1" x1="50.9" y1="-4.1" x2="51" y2="-1.1"/>
			<line class="st1" x1="35.2" y1="-2.5" x2="33.8" y2="-0.5"/>
			<line class="st1" x1="19" y1="-2.7" x2="20.3" y2="-0.7"/>
			<line class="st1" x1="7.9" y1="-4" x2="6.2" y2="-1.7"/>
			<line class="st1" x1="58.5" y1="-4.3" x2="60.5" y2="-1.3"/>
		</g>
	</g>
</pattern>
<pattern  y="1500" width="72" height="72" patternUnits="userSpaceOnUse" id="SVGID_2_" viewBox="4.2 -74.2 72 72" style="overflow:visible;">
	<g>
		<rect x="4.2" y="-74.2" class="st0" width="72" height="72"/>
		<g>
			<rect x="4.2" y="-74.2" class="st0" width="72" height="72"/>
			<rect x="4.2" y="-74.2" class="st0" width="72" height="72"/>
			<rect x="4.2" y="-74.2" class="st0" width="72" height="72"/>
			<line class="st1" x1="71" y1="-75.1" x2="72.1" y2="-72.2"/>
			<line class="st1" x1="66.1" y1="-75.3" x2="65.5" y2="-72"/>
			<line class="st1" x1="50.9" y1="-76.1" x2="51" y2="-73.1"/>
			<line class="st1" x1="35.2" y1="-74.5" x2="33.8" y2="-72.5"/>
			<line class="st1" x1="19" y1="-74.7" x2="20.3" y2="-72.7"/>
			<line class="st1" x1="7.9" y1="-76" x2="6.2" y2="-73.7"/>
			<line class="st1" x1="58.5" y1="-76.3" x2="60.5" y2="-73.3"/>
			<line class="st1" x1="77.8" y1="-26.3" x2="74.8" y2="-26.3"/>
			<line class="st1" x1="76.8" y1="-42" x2="74.8" y2="-43.5"/>
			<line class="st1" x1="8.8" y1="-13" x2="6" y2="-15"/>
			<line class="st1" x1="7.3" y1="-69.3" x2="5" y2="-71"/>
			<line class="st1" x1="76.3" y1="-9.3" x2="73" y2="-10"/>
			<line class="st1" x1="75" y1="-21" x2="72.5" y2="-22.8"/>
			<line class="st1" x1="77.8" y1="-26.3" x2="74.8" y2="-26.3"/>
			<line class="st1" x1="74.5" y1="-33.8" x2="71.8" y2="-32"/>
			<line class="st1" x1="76.8" y1="-42" x2="74.8" y2="-43.5"/>
			<line class="st1" x1="74.3" y1="-54" x2="71.5" y2="-51.8"/>
			<line class="st1" x1="76.3" y1="-65" x2="72" y2="-64.3"/>
			<line class="st1" x1="66.5" y1="-63.3" x2="64.3" y2="-65"/>
			<line class="st1" x1="74.8" y1="-47.3" x2="71.8" y2="-47.3"/>
			<line class="st1" x1="61" y1="-19.8" x2="59.1" y2="-17"/>
			<line class="st1" x1="31" y1="-18.3" x2="29.4" y2="-15.7"/>
			<line class="st1" x1="46.1" y1="-13.9" x2="47.9" y2="-11.2"/>
			<line class="st1" x1="71" y1="-75.1" x2="72.1" y2="-72.2"/>
			<line class="st1" x1="66.1" y1="-75.3" x2="65.5" y2="-72"/>
			<line class="st1" x1="60" y1="-50.3" x2="58.1" y2="-47.5"/>
			<line class="st1" x1="51.7" y1="-21.9" x2="50" y2="-19.3"/>
			<line class="st1" x1="50.9" y1="-76.1" x2="51" y2="-73.1"/>
			<line class="st1" x1="43.6" y1="-72.6" x2="45.4" y2="-69.9"/>
			<line class="st1" x1="35.2" y1="-74.5" x2="33.8" y2="-72.5"/>
			<line class="st1" x1="53.3" y1="-43.1" x2="55.7" y2="-40.4"/>
			<line class="st1" x1="19" y1="-74.7" x2="20.3" y2="-72.7"/>
			<line class="st1" x1="12.3" y1="-73.2" x2="13.2" y2="-68.9"/>
			<line class="st1" x1="7.9" y1="-76" x2="6.2" y2="-73.7"/>
			<line class="st1" x1="30.1" y1="-72.3" x2="30.2" y2="-69.3"/>
			<line class="st1" x1="10.3" y1="-7.5" x2="13.8" y2="-9"/>
			<line class="st1" x1="7.5" y1="-23" x2="7.8" y2="-19.8"/>
			<line class="st1" x1="11" y1="-46" x2="12.5" y2="-49.8"/>
			<line class="st1" x1="8.3" y1="-40.5" x2="10.5" y2="-36.8"/>
			<line class="st1" x1="32.3" y1="-6.8" x2="30" y2="-9.3"/>
			<line class="st1" x1="36.5" y1="-6.8" x2="39.8" y2="-9.5"/>
			<line class="st1" x1="53.3" y1="-6.8" x2="56.5" y2="-8.8"/>
			<line class="st1" x1="55.5" y1="-12.8" x2="53.5" y2="-16"/>
			<line class="st1" x1="62.5" y1="-11.5" x2="67.5" y2="-9.3"/>
			<line class="st1" x1="70" y1="-15" x2="67.5" y2="-16.8"/>
			<line class="st1" x1="21.8" y1="-7" x2="21.8" y2="-10"/>
			<line class="st1" x1="18.8" y1="-12" x2="15.5" y2="-12.5"/>
			<line class="st1" x1="23" y1="-16.5" x2="23.5" y2="-19.8"/>
			<line class="st1" x1="24" y1="-12" x2="27.5" y2="-11.3"/>
			<line class="st1" x1="12.3" y1="-23.8" x2="15" y2="-21.8"/>
			<line class="st1" x1="10.5" y1="-66.3" x2="10.8" y2="-62.3"/>
			<line class="st1" x1="10.3" y1="-58" x2="12.5" y2="-55.5"/>
			<line class="st1" x1="24.3" y1="-68" x2="21.8" y2="-64.5"/>
			<line class="st1" x1="32.8" y1="-30.8" x2="30.3" y2="-32.5"/>
			<line class="st1" x1="60.8" y1="-36" x2="58" y2="-34.5"/>
			<line class="st1" x1="29.8" y1="-42.3" x2="26" y2="-41.5"/>
			<line class="st1" x1="34.5" y1="-51.8" x2="32.5" y2="-53.3"/>
			<line class="st1" x1="32" y1="-63.8" x2="29.3" y2="-61.5"/>
			<line class="st1" x1="35.3" y1="-68" x2="33.3" y2="-66.8"/>
			<line class="st1" x1="32.5" y1="-57" x2="29.5" y2="-57"/>
			<line class="st1" x1="42.8" y1="-21.3" x2="40.3" y2="-23"/>
			<line class="st1" x1="45.5" y1="-26.5" x2="42.5" y2="-26.5"/>
			<line class="st1" x1="42.3" y1="-34" x2="39.5" y2="-32.3"/>
			<line class="st1" x1="41.5" y1="-44.8" x2="40.8" y2="-47.3"/>
			<line class="st1" x1="42" y1="-54.3" x2="39.3" y2="-52"/>
			<line class="st1" x1="42.5" y1="-62.3" x2="40.5" y2="-61"/>
			<line class="st1" x1="66" y1="-46.8" x2="63" y2="-46.8"/>
			<line class="st1" x1="25.3" y1="-45.3" x2="27.8" y2="-47"/>
			<line class="st1" x1="30" y1="-22.8" x2="33" y2="-22.8"/>
			<line class="st1" x1="17.8" y1="-37" x2="20.3" y2="-38.8"/>
			<line class="st1" x1="15" y1="-42.3" x2="18" y2="-42.3"/>
			<line class="st1" x1="18.3" y1="-49.8" x2="21" y2="-48"/>
			<line class="st1" x1="50.3" y1="-35.3" x2="52.7" y2="-33.7"/>
			<line class="st1" x1="50.6" y1="-27.8" x2="53" y2="-29.6"/>
			<line class="st1" x1="57.7" y1="-23.8" x2="57.5" y2="-26.8"/>
			<line class="st1" x1="48.4" y1="-67.9" x2="51.4" y2="-68"/>
			<line class="st1" x1="49.4" y1="-62" x2="51.7" y2="-63.8"/>
			<line class="st1" x1="56.5" y1="-58" x2="57.6" y2="-61.1"/>
			<line class="st1" x1="51.3" y1="-45.8" x2="48.8" y2="-47.5"/>
			<line class="st1" x1="51" y1="-53.3" x2="47.8" y2="-52.3"/>
			<line class="st1" x1="60" y1="-68.8" x2="57.3" y2="-67"/>
			<line class="st1" x1="67.5" y1="-43.3" x2="64.8" y2="-41.5"/>
			<line class="st1" x1="65.3" y1="-54.3" x2="63.3" y2="-55.8"/>
			<line class="st1" x1="22.6" y1="-31.9" x2="25.7" y2="-32"/>
			<line class="st1" x1="23.6" y1="-26" x2="26" y2="-27.8"/>
			<line class="st1" x1="60.8" y1="-30.8" x2="63.5" y2="-31.3"/>
			<line class="st1" x1="18" y1="-58" x2="18.5" y2="-61.3"/>
			<line class="st1" x1="20" y1="-56" x2="23.5" y2="-55.3"/>
			<line class="st1" x1="35.8" y1="-15" x2="39.8" y2="-15.8"/>
			<line class="st1" x1="36.5" y1="-35.8" x2="37" y2="-39.3"/>
			<line class="st1" x1="67.5" y1="-25.3" x2="65" y2="-24"/>
			<line class="st1" x1="13" y1="-15.8" x2="16.3" y2="-18.5"/>
			<line class="st1" x1="7.8" y1="-31.8" x2="5.3" y2="-33.5"/>
			<line class="st1" x1="18.8" y1="-26.3" x2="16.8" y2="-27.8"/>
			<line class="st1" x1="44.3" y1="-7.1" x2="46.2" y2="-4.4"/>
			<line class="st1" x1="67.6" y1="-37.4" x2="69.4" y2="-34.7"/>
			<line class="st1" x1="36.8" y1="-28.6" x2="37.5" y2="-25.8"/>
			<line class="st1" x1="23.3" y1="-61.1" x2="24" y2="-58.3"/>
			<line class="st1" x1="34.8" y1="-45" x2="32.8" y2="-46.5"/>
			<line class="st1" x1="5.8" y1="-26.3" x2="2.8" y2="-26.3"/>
			<line class="st1" x1="4.8" y1="-42" x2="2.8" y2="-43.5"/>
			<line class="st1" x1="71" y1="-3.1" x2="72.1" y2="-0.2"/>
			<line class="st1" x1="66.1" y1="-3.3" x2="65.5" y2="0"/>
			<line class="st1" x1="50.9" y1="-4.1" x2="51" y2="-1.1"/>
			<line class="st1" x1="35.2" y1="-2.5" x2="33.8" y2="-0.5"/>
			<line class="st1" x1="19" y1="-2.7" x2="20.3" y2="-0.7"/>
			<line class="st1" x1="7.9" y1="-4" x2="6.2" y2="-1.7"/>
			<line class="st1" x1="8.3" y1="-54.3" x2="4.5" y2="-53.5"/>
			<line class="st1" x1="71.4" y1="-59.6" x2="69.5" y2="-56.8"/>
			<line class="st1" x1="27" y1="-38.3" x2="27.7" y2="-35.5"/>
			<line class="st1" x1="47.8" y1="-39.3" x2="45.8" y2="-40.8"/>
			<line class="st1" x1="58.5" y1="-4.3" x2="60.5" y2="-1.3"/>
			<line class="st1" x1="58.5" y1="-76.3" x2="60.5" y2="-73.3"/>
			<line class="st1" x1="4.3" y1="-9.3" x2="1" y2="-10"/>
			<line class="st1" x1="5.8" y1="-26.3" x2="2.8" y2="-26.3"/>
			<line class="st1" x1="4.8" y1="-42" x2="2.8" y2="-43.5"/>
			<line class="st1" x1="4.3" y1="-65" x2="0" y2="-64.3"/>
			<line class="st1" x1="71" y1="-3.1" x2="72.1" y2="-0.2"/>
			<line class="st1" x1="66.1" y1="-3.3" x2="65.5" y2="0"/>
			<line class="st1" x1="50.9" y1="-4.1" x2="51" y2="-1.1"/>
			<line class="st1" x1="35.2" y1="-2.5" x2="33.8" y2="-0.5"/>
			<line class="st1" x1="19" y1="-2.7" x2="20.3" y2="-0.7"/>
			<line class="st1" x1="7.9" y1="-4" x2="6.2" y2="-1.7"/>
			<line class="st1" x1="58.5" y1="-4.3" x2="60.5" y2="-1.3"/>
		</g>
	</g>
</pattern>
<g class="st2">
	<path class="st3" d="M53.9,21.6c3.4,0.4,7-0.5,10.5-1c1.8-0.3,3.6-0.6,5.4-0.9c-3.1,0.5-6.2,1.1-9.1,0.8c-2.6-0.4-5.3-0.1-7.8,0.7
		c-0.3,0.1-0.6,0.2-0.9,0.2C52.6,21.5,53.3,21.5,53.9,21.6z"/>
	<path class="st3" d="M231.2,12.1c3.3,0.7,6.7,1.5,10,2.4c4.3,1.1,8.5,2.3,12.7,3.5c3,0,4.8,0.5,7.8,0.7c1.2,0.1,3.4,0.4,4.6,1h6.3
		l3.1-1l-2.7-0.1l-12.4-1.7c-4.2-1.2-8.5-2.4-12.7-3.5c-3.3-0.9-6.6-1.7-10-2.4c-1.8-0.4-4.1-1.3-5.4-0.6c-0.9,0.5-1.9,1-2.9,1.3
		C230.2,11.8,230.7,12,231.2,12.1z"/>
	<path class="st3" d="M144.4,8.3c4.8,7.6,13.2,7,20.5,9c1,0.3,2.2-0.6,3.4-0.7c3.7-0.4,7.4-0.6,11.2-1c2.4-0.2,5,0,7.2-0.8l1.4-0.5
		c-0.6,0-1.2,0-1.8,0.1c-3.7,0.3-7.5,0.6-11.2,1c-1.2,0.1-2.4,1-3.4,0.7c-7.2-2-15.7-1.5-20.5-9h-11.5c-0.5,0.3-1,0.8-1.6,1.1
		L144.4,8.3z"/>
	<path class="st3" d="M79.2,18.4c5.4-0.1,10.8,1.4,16.2,1.1c2.1-0.1,4.1-0.5,6-1.1c-5.2,0.1-10.4-1.3-15.5-1.2
		c-3.5,0.2-6.9,0.7-10.3,1.4C76.8,18.5,78,18.4,79.2,18.4z"/>
	<path class="st3" d="M201.5,12.6c6.8,1.1,13.9,2.8,20.7,0.5c-4.7,0.1-9.4-0.9-14-1.6c-3.5-0.5-7.1-0.2-10.5,0.9
		C198.9,12.3,200.2,12.4,201.5,12.6z"/>
	<path class="st3" d="M280.5,18c6.7,0.8,13.4,1.7,20.2,2.4c1.5,0,3.1-0.2,4.5-0.6l10.6-0.9c-3.5,0.3-0.4-0.6-3.9-0.3
		c-1.5,0.4-3,0.6-4.5,0.6c-6.7-0.7-13.5-1.6-20.2-2.4l-0.9-0.8L280.5,18L280.5,18z"/>
	<path class="st3" d="M119.9,13.7c0-0.1,0.1-0.1,0.2-0.2c-1,0.2-2,0.5-3,0.7c0.5,0,1.1,0,1.7,0C119.2,14.2,119.6,14,119.9,13.7z"/>
	<path class="st3" d="M128.4,10.8h0.3c0.6-0.1,1.3-0.4,1.8-0.7C129.8,10.2,129.1,10.5,128.4,10.8z"/>
	<path class="st3" d="M23.4,21.4c3.5,0.7,7.1,1.7,10.6,1.8c4,0.2,8.3,0.3,12.1-0.9l0.7-0.2c-2,0.1-4.1,0-6-0.1
		c-3.6-0.2-7.1-1.1-10.6-1.9c-2.9-0.6-5.9-1.8-8.2,0.8C22.4,21.1,22.9,21.3,23.4,21.4z"/>
</g>
<path class="st4" d="M320.1,18.9v1483.5l-0.9,0.9H-2.7V29.4c2.7,0.2,5.4-0.1,7.9-0.9c3.5-1.1,6.8-2.9,10.2-4.5
	c0.5-0.2,1.3-0.4,1.5-0.8c2.3-3.9,5.7-2.5,8.9-1.8c3.5,0.7,7.1,1.7,10.6,1.8c4,0.2,8.3,0.4,12.1-0.9c2.5-0.9,5.2-1.1,7.8-0.7
	c3.4,0.4,7-0.5,10.5-1c4.9-0.7,9.8-2.1,14.8-2.2c5.4-0.2,10.8,1.4,16.2,1.1c8-0.4,14.9-6,23.3-5.3c0.4,0,0.9-0.2,1.1-0.6
	c2.3-3.1,5.6-2.6,8.8-2.8c1.5-0.1,2.8-1.6,4.2-2.5h11.5c4.8,7.6,13.2,7,20.5,9c1,0.3,2.2-0.6,3.4-0.7c3.7-0.4,7.4-0.6,11.2-1
	c2.4-0.2,5,0,7.2-0.8c4.8-1.7,9.4-3.2,14.8-2.3c8.1,1.3,16.4,3.4,24.4-1.1c1.3-0.7,3.6,0.2,5.4,0.6c3.3,0.7,6.7,1.5,10,2.4
	c4.3,1.1,8.5,2.3,12.7,3.5l12.4,1.7h5.3l7.9-2.6l0.9,0.8c6.7,0.8,13.4,1.7,20.2,2.4c1.5,0,3.1-0.2,4.6-0.6l10.6-0.9L320.1,18.9z"/>
<pattern  id="SVGID_3_" xlink:href="#SVGID_1_" patternTransform="matrix(1 0 0 -1 261.9347 -19363.4336)">
</pattern>
<pattern  id="SVGID_4_" xlink:href="#SVGID_2_" patternTransform="matrix(1 0 0 -1 295.9347 -19384.7832)">
</pattern>
<path class="st5" d="M320.1,18.9v1483.5l-0.9,0.9H-2.7V29.4c2.7,0.2,5.4-0.1,7.9-0.9c3.5-1.1,6.8-2.9,10.2-4.5
	c0.5-0.2,1.3-0.4,1.5-0.8c2.3-3.9,5.7-2.5,8.9-1.8c3.5,0.7,7.1,1.7,10.6,1.8c4,0.2,8.3,0.4,12.1-0.9c2.5-0.9,5.2-1.1,7.8-0.7
	c3.4,0.4,7-0.5,10.5-1c4.9-0.7,9.8-2.1,14.8-2.2c5.4-0.2,10.8,1.4,16.2,1.1c8-0.4,14.9-6,23.3-5.3c0.4,0,0.9-0.2,1.1-0.6
	c2.3-3.1,5.6-2.6,8.8-2.8c1.5-0.1,2.8-1.6,4.2-2.5h11.5c4.8,7.6,13.2,7,20.5,9c1,0.3,2.2-0.6,3.4-0.7c3.7-0.4,7.4-0.6,11.2-1
	c2.4-0.2,5,0,7.2-0.8c4.8-1.7,9.4-3.2,14.8-2.3c8.1,1.3,16.4,3.4,24.4-1.1c1.3-0.7,3.6,0.2,5.4,0.6c3.3,0.7,6.7,1.5,10,2.4
	c4.3,1.1,8.5,2.3,12.7,3.5l12.4,1.7h5.3l7.9-2.6l0.9,0.8c6.7,0.8,13.4,1.7,20.2,2.4c1.5,0,3.1-0.2,4.6-0.6l10.6-0.9L320.1,18.9z"/>
</svg>
